inDegrees=no
num_controls=7
num_derivatives=13
num_iterations=102
num_multipliers=7
num_parameters=0
num_slacks=7
num_states=26
objective=0.497138
objective_accelerations=0.032390
objective_balance=0.003272
objective_effort=0.035061
objective_height=0.420926
objective_ligament=0.005490
solver_duration=1194.474299
status=Solve_Succeeded
success=true
DataType=double
version=3
OpenSimVersion=4.5
endheader
time	/jointset/ground_pelvis/pelvis_tilt/value	/jointset/ground_pelvis/pelvis_tx/value	/jointset/ground_pelvis/pelvis_ty/value	/jointset/hip_r/hip_flexion_r/value	/jointset/hip_r/hip_adduction_r/value	/jointset/hip_r/hip_rotation_r/value	/jointset/back/lumbar_extension/value	/jointset/patellofemoral_r/patellar_flexion_r/value	/jointset/knee_r/knee_flexion_r/value	/jointset/knee_r/knee_adduction_r/value	/jointset/knee_r/knee_rotation_r/value	/jointset/ankle_r/ankle_angle_r/value	/jointset/subtalar_r/subtalar_angle_r/value	/jointset/ground_pelvis/pelvis_tilt/speed	/jointset/ground_pelvis/pelvis_tx/speed	/jointset/ground_pelvis/pelvis_ty/speed	/jointset/hip_r/hip_flexion_r/speed	/jointset/hip_r/hip_adduction_r/speed	/jointset/hip_r/hip_rotation_r/speed	/jointset/back/lumbar_extension/speed	/jointset/patellofemoral_r/patellar_flexion_r/speed	/jointset/knee_r/knee_flexion_r/speed	/jointset/knee_r/knee_adduction_r/speed	/jointset/knee_r/knee_rotation_r/speed	/jointset/ankle_r/ankle_angle_r/speed	/jointset/subtalar_r/subtalar_angle_r/speed	/forceset/tau_hip_flexion_r	/forceset/tau_hip_adduction_r	/forceset/tau_hip_rotation_r	/forceset/tau_knee_flexion_r	/forceset/tau_ankle_angle_r	/forceset/tau_subtalar_angle_r	/forceset/tau_lumbar_extension	lambda_cid13_p0	lambda_cid14_p0	lambda_cid14_p1	lambda_cid14_p2	lambda_cid14_p3	lambda_cid14_p4	lambda_cid14_p5	/jointset/ground_pelvis/pelvis_tilt/accel	/jointset/ground_pelvis/pelvis_tx/accel	/jointset/ground_pelvis/pelvis_ty/accel	/jointset/hip_r/hip_flexion_r/accel	/jointset/hip_r/hip_adduction_r/accel	/jointset/hip_r/hip_rotation_r/accel	/jointset/back/lumbar_extension/accel	/jointset/patellofemoral_r/patellar_flexion_r/accel	/jointset/knee_r/knee_flexion_r/accel	/jointset/knee_r/knee_adduction_r/accel	/jointset/knee_r/knee_rotation_r/accel	/jointset/ankle_r/ankle_angle_r/accel	/jointset/subtalar_r/subtalar_angle_r/accel	gamma_cid13_p0	gamma_cid14_p0	gamma_cid14_p1	gamma_cid14_p2	gamma_cid14_p3	gamma_cid14_p4	gamma_cid14_p5
0.5	-0.09931656833514793	0.05123430505925086	0.8633586277562819	0.6951788113645028	-0.2298979443023133	-0.1329901800798659	-0.3182620096879402	0.6875369881129328	0.687536988113417	0.04116031989121623	0.1740020711229854	0.2626433752014838	0.05665289371220055	-0.2632575870339533	-0.09020355167677906	-0.3277460278942479	1.41089258532063	-0.008056876204107272	0.2580267783020586	-0.6069766509207802	1.670885531987985	1.670885531987971	-0.278967039253149	-0.001235105751622375	0.612859729125401	0.1642630276023684	-0.07670580701671498	-0.01853589562493297	0.008360240616019735	-0.33879989248347	0.06302036206951045	-0.01005779639373312	0.1365016154276849	-32.02670544687884	-21.97139377258138	-4.298923482144512	-3.327918814776413	3.261784180825177	-670.9122342571068	59.94174556138159	0.07535470480856278	0.2943205044390113	-0.3412600311669518	-0.9081383953588694	-0.05294461877708216	-0.5523544451515889	1.349237029488159	-1.166198473433513	-1.166198473433532	0.4019180306545285	-0.004273864078583194	-0.4649917878480388	-0.06194486176586412	-1.105693566417169e-07	-1.590062566363679e-07	5.384272618875488e-07	-1.245157917625925e-06	4.06259324647062e-08	-2.161855269630952e-07	8.4880468427987e-07
0.51	-0.1019449379443204	0.05034709789178653	0.8600648508087452	0.70924006256456	-0.2299819190329916	-0.1304364255534609	-0.324263561689068	0.7041849409420791	0.7041849409419969	0.03839315246065923	0.173989451322629	0.2687475514209385	0.05829102836083794	-0.2623806158458398	-0.08722849089793799	-0.3309334800499045	1.401159339668996	-0.008741957774169619	0.2527368655622126	-0.5932506738655623	1.658461983401131	1.658461983401123	-0.2744256350424267	-0.001296249422023604	0.6078867574287079	0.1633286549097064	-0.08207067130970709	-0.01666099653491868	0.009019935720837483	-0.3415586675991156	0.05861791864195145	-0.009488220140903777	0.1414363856510229	-31.07564363965658	-23.53293846856636	-4.444339962484282	-3.168387806234761	3.895685518297982	-674.1922188317257	59.68500809895743	0.09921335979846606	0.3005165321995749	-0.2961488837832321	-1.035682150189134	-0.07703621264984843	-0.5155825007194683	1.396739359627715	-1.316869330699575	-1.316869330698803	0.4863805962128281	-0.008360156219497362	-0.5267730207096035	-0.1145368826400908	-9.267335082722286e-08	-1.134916408590649e-07	6.014202643945658e-07	-9.050605142075613e-07	5.757178075672726e-09	-1.65224358141389e-07	7.386301520854262e-07
0.52	-0.1045634688348151	0.04948992486562903	0.856741467124448	0.7231980284080761	-0.2300728938366687	-0.1279352247169219	-0.3301253616564266	0.7207013710294948	0.7207013710288256	0.03567262486821354	0.173975954977992	0.2747993332914002	0.05991874860062396	-0.261289843298291	-0.08419672341541228	-0.3336673752462978	1.390235514012424	-0.009456890805406045	0.247516040329639	-0.5790262441667725	1.644580983638746	1.644580983638743	-0.2696390716344441	-0.001410414600365684	0.6023808593268274	0.1621801458320965	-0.08743553560270319	-0.01478609744488563	0.00967963082537149	-0.3443174427147601	0.05421547521439314	-0.008918643888062868	0.1463711558743567	-30.11623340172521	-25.09886340304328	-4.588148851261407	-3.011826096577976	4.515145572506341	-677.5463933038942	59.49136134087669	0.1181149766957469	0.3056618451758419	-0.2505486393143201	-1.146254396346345	-0.058914911011919	-0.5385369436971313	1.448927558202635	-1.45768870853974	-1.457688708539814	0.4509498701065471	-0.0148781656667575	-0.5715770688856489	-0.1047721387554824	-6.48705887611498e-08	-2.397058548062219e-08	8.100699955014959e-07	-2.518377360081666e-07	-7.383391076411257e-08	-6.152061448986164e-08	5.863509878206232e-07
0.53	-0.1071701532068803	0.0486633266706407	0.8533930287351922	0.7370411384432883	-0.2301706801642042	-0.1254877874721278	-0.3358424642336597	0.7370719460004331	0.7370719460000523	0.03299908168686434	0.1739620677953258	0.2807936462161343	0.06153465156652214	-0.2600114976120753	-0.08111463970233576	-0.3359410134626328	1.378190982355706	-0.01010928997490245	0.2420082869104293	-0.5643279125688793	1.629300686810003	1.629300686810008	-0.2650085727700335	-0.001386611490513461	0.5963986654609362	0.160958198151039	-0.09252931785255232	-0.01317667293785679	0.01035690349884565	-0.347461344857639	0.0503303398202375	-0.008434205948573149	0.1510898575956375	-29.15099668571677	-26.5059807041253	-4.745588911499414	-2.847994836257834	5.036671125234759	-680.9397652918514	59.34120238352209	0.13802534437601	0.3106998882440682	-0.2038794514545005	-1.262876877198884	-0.06964945229469359	-0.5514127817197942	1.490239767429845	-1.598188677348488	-1.598188677347127	0.478382407558705	0.00810313214349237	-0.6240238384202949	-0.137088192640185	-3.803605108314819e-08	6.235202659799495e-08	1.022953165421529e-06	3.770407838208369e-07	-1.521060207565911e-07	3.564673948729585e-08	4.664887925769545e-07
0.54	-0.1097629879261266	0.04786779296355715	0.8500242323560407	0.7507579382965575	-0.2302752398899055	-0.1230943314096671	-0.3414105927335453	0.7532827203016149	0.7532827203015319	0.03037369999675377	0.1739478373603357	0.2867256405436137	0.0631370986336376	-0.2585199127341863	-0.07798382583445759	-0.337738973225438	1.364973477624414	-0.01081157043944479	0.2367198038637408	-0.549231428697093	1.612620849688986	1.612620849689001	-0.2600067733876077	-0.00147906506737173	0.5899171398758664	0.1594889660756089	-0.09762310010242273	-0.0115672484308396	0.01103417617247673	-0.350605247000529	0.04644520442607112	-0.007949768009122454	0.1558085593169039	-28.1806801610691	-27.91923471939755	-4.903458523011506	-2.684831209409845	5.557092764935995	-684.4290296789658	59.21345345444604	0.1607628150304883	0.3154078761360844	-0.1554129486083422	-1.380849011261422	-0.06889117002108898	-0.4946828691929103	1.5285580129813	-1.737596766994383	-1.737596766994303	0.5252099737095496	-0.03812950300884886	-0.6714434127214679	-0.1542290176300046	-1.227274038769372e-08	1.451359354512732e-07	1.240520139985845e-06	9.789852305591947e-07	-2.289188350031131e-07	1.25582343186427e-07	3.824921800800733e-07
0.55	-0.1123400012440338	0.04710375294540779	0.8466398258296548	0.7643371374644484	-0.2303865391939354	-0.1207549978046055	-0.3468258075187927	0.7693199717205234	0.7693199717202032	0.02779765417578434	0.1739332964434098	0.2925905647239663	0.06472444190319032	-0.2568512289426249	-0.07482038983858735	-0.3390620279403128	1.350686935734371	-0.01145131378237625	0.2311585415675635	-0.5337617397979471	1.594611256463473	1.594611256463498	-0.2551726707265872	-0.001435455381140295	0.5829909200007604	0.1579465442981568	-0.1024827416432617	-0.009996866878399685	0.01162935589877956	-0.3538574637796834	0.04277235125679926	-0.007491724316238533	0.1603087284900408	-27.2063455696909	-29.26271640782247	-5.062521330969476	-2.51925470759638	6.059676059005938	-687.8395982277995	59.09426724440077	0.1746635505432814	0.3173254912657986	-0.1086711885823703	-1.479449203012478	-0.0616471166722487	-0.5850374870968558	1.563642611746439	-1.865367600695879	-1.865367600694425	0.4672130520669783	0.02492255808616081	-0.7147658693112037	-0.158852786005436	3.4593075074284e-09	1.935229638438683e-07	1.366724489215904e-06	1.326214835883721e-06	-2.740422592218145e-07	1.775843140173141e-07	3.499858273866919e-07
0.5600000000000001	-0.1148993792461659	0.04637145009320771	0.8432446048649886	0.7777680927284049	-0.230504262171449	-0.1184709147379554	-0.3520848317583767	0.7851705818071015	0.7851705818065483	0.02527088990937245	0.1739190548940781	0.2983839157866866	0.06629544014932756	-0.2549928495780791	-0.07163639264459924	-0.3399018608814223	1.335324696838861	-0.01209630513502165	0.2256696961807141	-0.5179933195641876	1.575292583223314	1.575292583223349	-0.2501504624748169	-0.001419191549028989	0.5756025163494115	0.1562199613925996	-0.1073423831841221	-0.00842648532597411	0.01222453562513103	-0.3571096805588423	0.03909949808752257	-0.007033680623376492	0.1648088976631611	-26.22933698621571	-30.61433743349177	-5.224695619450134	-2.351254363622945	6.57447585454999	-691.372924412982	58.96003134703778	0.1987019296274662	0.3195201157595768	-0.05876859385529998	-1.595988412354855	-0.06994077196385184	-0.4801994873273122	1.588304279904074	-1.999412769923567	-1.999412769923563	0.5628310918594628	-0.04359867383286473	-0.7638801679701275	-0.1910612432510436	7.153840042152098e-09	2.006337356836451e-07	1.383293688044856e-06	1.367786631511658e-06	-2.811384154071323e-07	1.840659254063098e-07	3.792677864575084e-07
0.5700000000000001	-0.1174392413159752	0.04567106871435126	0.8398434018565143	0.7910401831742881	-0.2306284046784428	-0.1162417088471593	-0.3571847072106109	0.8008216537259212	0.8008216537254188	0.02279485450778124	0.1739050102183843	0.3041011910594991	0.06784836045297797	-0.2529461007552456	-0.06843796012117943	-0.340257583911837	1.318920785655571	-0.01273092553429762	0.2201676617625934	-0.5019386120901489	1.554720125965146	1.554720125965183	-0.245046807609229	-0.001386402107863851	0.5677858896706265	0.1543385455452467	-0.1121135348894834	-0.006788490351618406	0.01270367622394594	-0.3602459478695756	0.03544327993803051	-0.006567278753765609	0.1692124405917224	-25.25123995223064	-31.95366836134033	-5.38201075238376	-2.182976363509861	7.076883884284243	-694.7944816427762	58.81251141771173	0.2126963429636854	0.320236240780554	-0.01176307593222527	-1.68846113025622	-0.05970034250470516	-0.5857052171757904	1.620527800220819	-2.116415238883806	-2.116415238883381	0.4858476768118932	0.02750760456232089	-0.8005896576210025	-0.190132241916202	9.076262672369435e-09	2.005856076343328e-07	1.372808382020948e-06	1.356633376480888e-06	-2.806920846935237e-07	1.83006954559242e-07	4.094191227198747e-07
0.58	-0.1199576289006911	0.04500271794475841	0.8364410838340761	0.8041430607765441	-0.2307587889231554	-0.1140676232601629	-0.3621227408242922	0.8162609504651377	0.8162609504646838	0.02037019865341733	0.1738914514073931	0.3097382929175659	0.06938177650086659	-0.2506979525583064	-0.06523027079187772	-0.3401248636741858	1.301482128114676	-0.01334465267737794	0.2146456354196177	-0.4856249518534239	1.532937547302165	1.532937547302205	-0.2398745530275026	-0.001322018607854514	0.5595678334003082	0.1523191102403423	-0.1168846865948608	-0.005150495377265185	0.01318281682271989	-0.3633822151803124	0.03178706178853728	-0.006100876884158347	0.1736159835202703	-24.27384936579295	-33.30193413590005	-5.542547811861992	-2.012289786995623	7.593674268110465	-698.3508917289721	58.64835307855861	0.2389818044487004	0.3213714769358818	0.03892005975786142	-1.802937683875989	-0.0657621207247055	-0.4841978722983376	1.640094832441396	-2.241437050886118	-2.241437050886081	0.576551035087131	-0.03727986206401903	-0.8441660862768589	-0.2186651347613647	8.69082124090415e-09	1.912142611248117e-07	1.327089302235179e-06	1.276814939196919e-06	-2.704229803441044e-07	1.721276905675336e-07	4.407026711386776e-07
